<svg xmlns="http://www.w3.org/2000/svg" xmlns:svgjs="http://svgjs.com/svgjs" xmlns:xlink="http://www.w3.org/1999/xlink" width="1024" height="450" preserveAspectRatio="none" version="1.1" viewBox="0 0 1024 450"><g fill="none" mask="url(&quot;#SvgjsMask1025&quot;)"><rect width="1024" height="450" x="0" y="0" fill="rgba(38, 143, 205, 1)"/><path fill="#1e72a4" d="M0,284.885C63.157,277.296,127.683,314.08,186.875,290.784C250.93,265.573,308.652,216.588,335.056,153.015C361.183,90.108,343.479,19.097,327.184,-47.042C312.162,-108.015,285.606,-164.393,245.042,-212.33C204.119,-260.691,154.754,-302.282,94.54,-321.973C33.247,-342.017,-35.436,-348.251,-94.997,-323.531C-152.34,-299.731,-181.202,-239.136,-220.619,-191.167C-258.883,-144.601,-313.94,-106.028,-322.721,-46.4C-331.508,13.272,-282.482,63.584,-266.705,121.8C-246.859,195.028,-282.88,299.87,-218.152,339.45C-152.881,379.362,-75.961,294.012,0,284.885"/><path fill="#47a5dd" d="M1024 739.6469999999999C1082.331 742.371 1143.532 743.94 1193.726 714.0989999999999 1244.643 683.828 1284.621 633.162 1299.54 575.835 1313.578 521.893 1287.859 467.736 1271.724 414.383 1257.871 368.575 1241.199 324.996 1212.175 286.945 1181.617 246.883 1146.557 210.005 1100.406 189.78500000000003 1050.363 167.85899999999998 990.337 144.22000000000003 941.271 168.252 891.924 192.42200000000003 893.588 264.38300000000004 859.736 307.66499999999996 828.403 347.727 771.806 364.175 751.549 410.827 728.754 463.325 721.164 525.478 742.015 578.778 763.233 633.017 813.578 669.847 864.1659999999999 698.707 912.925 726.523 967.926 737.028 1024 739.6469999999999"/></g><defs><mask id="SvgjsMask1025"><rect width="1024" height="450" fill="#fff"/></mask></defs></svg>